<?xml version="1.0" encoding="iso-8859-1"?>
<!-- Generator: Adobe Illustrator 21.0.0, SVG Export Plug-In . SVG Version: 6.00 Build 0)  -->
<svg version="1.1" id="Capa_1" xmlns="http://www.w3.org/2000/svg" xmlns:xlink="http://www.w3.org/1999/xlink" x="0px" y="0px"
	 viewBox="0 0 512 512" style="enable-background:new 0 0 512 512;" xml:space="preserve">
<g id="XMLID_1181_">
	<g id="XMLID_1182_">
		<g id="XMLID_1183_">
			<g id="XMLID_1184_">
				<g id="XMLID_1185_">
					<path style="fill:#EB5777;" d="M504.5,450.489H320.295v-81.398c0-24.121,19.554-43.674,43.674-43.674h96.856
						c24.121,0,43.674,19.554,43.674,43.674V450.489z"/>
					<g id="XMLID_1186_">
						<path style="fill:#E39F6E;" d="M413.444,350.008L413.444,350.008c-8.222,0-14.887-6.665-14.887-14.887v-41.76h29.773v41.76
							C428.331,343.343,421.666,350.008,413.444,350.008z"/>
						<path style="fill:#BA6F3C;" d="M334.687,235.127h157.514l4.154-20.264c10.759-52.483-29.336-101.632-82.911-101.632h0
							c-53.575,0-93.67,49.149-82.911,101.632L334.687,235.127z"/>
						<g id="XMLID_1187_">
							<g id="XMLID_1188_">
								<circle style="fill:#E39F6E;" cx="480.943" cy="243.059" r="20.043"/>
							</g>
							<g id="XMLID_1189_">
								<path id="XMLID_1190_" style="fill:#E39F6E;" d="M365.986,243.061c0,11.067-8.966,20.044-20.044,20.044
									c-11.067,0-20.044-8.977-20.044-20.044c0-1.691,0.205-3.341,0.615-4.908c2.183-8.69,10.053-15.135,19.429-15.135
									c9.499,0,17.451,6.61,19.511,15.474C365.801,239.956,365.986,241.493,365.986,243.061z"/>
								<path id="XMLID_1191_" style="fill:#D88852;" d="M365.453,238.49c-5.657,3.248-12.205,5.103-19.183,5.103
									c-7.214,0-13.967-1.988-19.757-5.441c2.183-8.69,10.053-15.135,19.429-15.135
									C355.441,223.017,363.393,229.626,365.453,238.49z"/>
							</g>
						</g>
						<path id="XMLID_1192_" style="fill:#F8C298;" d="M350.361,187l6.873,55.005l2.603,20.864
							c3.382,27.033,26.367,47.323,53.604,47.323c27.248,0,50.233-20.29,53.604-47.323L476.522,187H350.361z"/>
						<path id="XMLID_1193_" style="fill:#E39F6E;" d="M384.964,204.899c0,17.533-11.723,32.372-27.729,37.106l-7.368-58.964h28.324
							C382.463,189.272,384.964,196.794,384.964,204.899z"/>
					</g>
				</g>
				<path id="XMLID_1194_" style="fill:#BA6F3C;" d="M338.573,188.559c0,0,13.449,13.34,49.665,14.304
					c2.29,0.061,4.17-1.782,4.17-4.073l0-5.373c0,0,13.167,8.641,41.069,9.441c2.291,0.066,4.17-1.781,4.17-4.073v-3.048
					c0,0,10.851,6.623,43.375,7.147c2.269,0.037,4.126-1.803,4.126-4.072l0-19.774c0-2.588-2.098-4.687-4.687-4.687H352.78
					C344.934,174.352,338.573,180.712,338.573,188.559L338.573,188.559z"/>
			</g>
			<g id="XMLID_1195_">
				<g id="XMLID_1196_">
					<path style="fill:#4FCEB7;" d="M191.705,450.489H7.5v-81.398c0-24.121,19.554-43.674,43.674-43.674h96.856
						c24.121,0,43.674,19.554,43.674,43.674V450.489z"/>
					<g id="XMLID_1197_">
						<path style="fill:#E39F6E;" d="M100.649,350.008L100.649,350.008c-8.222,0-14.887-6.665-14.887-14.887v-41.76h29.773v41.76
							C115.535,343.343,108.87,350.008,100.649,350.008z"/>
						<path style="fill:#BA6F3C;" d="M21.892,235.127h157.514l4.154-20.264c10.759-52.483-29.336-101.632-82.911-101.632h0
							c-53.575,0-93.67,49.149-82.911,101.632L21.892,235.127z"/>
						<g id="XMLID_1198_">
							<g id="XMLID_1199_">
								<path id="XMLID_1200_" style="fill:#E39F6E;" d="M188.193,243.061c0,11.067-8.977,20.044-20.044,20.044
									s-20.044-8.977-20.044-20.044c0-1.691,0.205-3.341,0.615-4.908c2.183-8.69,10.053-15.135,19.429-15.135
									c9.499,0,17.462,6.61,19.511,15.484C188.008,239.966,188.193,241.493,188.193,243.061z"/>
								<path id="XMLID_1201_" style="fill:#D88852;" d="M187.66,238.501c-5.657,3.238-12.205,5.093-19.173,5.093
									c-7.214,0-13.977-1.988-19.767-5.441c2.183-8.69,10.053-15.135,19.429-15.135
									C177.648,223.017,185.61,229.626,187.66,238.501z"/>
							</g>
							<g id="XMLID_1202_">
								<circle style="fill:#E39F6E;" cx="33.149" cy="243.059" r="20.043"/>
							</g>
						</g>
						<path id="XMLID_1203_" style="fill:#F8C298;" d="M37.568,187l9.476,75.869c3.382,27.033,26.356,47.323,53.604,47.323
							c27.248,0,50.223-20.29,53.604-47.323l2.634-21.048L163.73,187H37.568z"/>
						<path id="XMLID_1204_" style="fill:#E39F6E;" d="M134.199,187c-2.808,5.358-4.406,11.442-4.406,17.899
							c0,17.298,11.405,31.982,27.094,36.921L163.73,187H134.199z"/>
					</g>
				</g>
				<path id="XMLID_1205_" style="fill:#BA6F3C;" d="M25.778,188.559c0,0,13.449,13.34,49.665,14.304
					c2.29,0.061,4.17-1.782,4.17-4.073l0-5.373c0,0,13.167,8.641,41.069,9.441c2.291,0.066,4.17-1.781,4.17-4.073l0-3.048
					c0,0,10.851,6.623,43.375,7.147c2.269,0.037,4.126-1.803,4.126-4.072l0-19.774c0-2.588-2.098-4.687-4.687-4.687H39.985
					C32.138,174.352,25.778,180.712,25.778,188.559L25.778,188.559z"/>
			</g>
		</g>
		<g id="XMLID_1206_">
			<g id="XMLID_1207_">
				<g id="XMLID_1208_">
					<path style="fill:#A9D2F7;" d="M377.293,478.073H134.707V370.878c0-31.765,25.751-57.516,57.516-57.516h127.553
						c31.765,0,57.516,25.751,57.516,57.516V478.073z"/>
					<g id="XMLID_1209_">
						<polygon id="XMLID_1210_" style="fill:#5F9EEB;" points="181.559,341.493 181.559,366.385 196.669,366.385 188.149,395.717 
							214.583,431.139 214.583,313.361 						"/>
					</g>
					<g id="XMLID_1211_">
						<polygon style="fill:#5F9EEB;" points="333.197,341.493 333.197,366.385 318.087,366.385 326.607,395.717 300.173,431.139 
							300.173,313.361 						"/>
					</g>
					<rect x="214.583" y="313.36" style="fill:#627687;" width="85.589" height="164.713"/>
					<path style="fill:#7FB7EA;" d="M377.289,370.878v107.193h-19.598V370.878c0-31.761-25.758-57.518-57.518-57.518h19.609
						C351.542,313.36,377.289,339.117,377.289,370.878z"/>
					<g id="XMLID_1212_">
						<path style="fill:#F8C298;" d="M257.378,345.746L257.378,345.746c-10.827,0-19.605-8.777-19.605-19.605v-54.995h39.209v54.995
							C276.983,336.969,268.205,345.746,257.378,345.746z"/>
						<path style="fill:#FFCF64;" d="M153.661,194.455h207.435l5.471-26.686c14.169-69.117-38.634-133.842-109.188-133.842h0
							c-70.554,0-123.357,64.726-109.188,133.842L153.661,194.455z"/>
						<g id="XMLID_1213_">
							<g id="XMLID_1214_">
								<circle style="fill:#F8C298;" cx="346.27" cy="204.901" r="26.396"/>
							</g>
							<g id="XMLID_1215_">
								<circle style="fill:#F8C298;" cx="168.486" cy="204.901" r="26.396"/>
							</g>
						</g>
						<path id="XMLID_1216_" style="fill:#FFD6C0;" d="M178.636,165.735l8.15,65.25c4.447,35.603,34.712,62.323,70.592,62.323h0
							c35.88,0,66.145-26.719,70.592-62.323l8.15-65.25C338.557,146.228,323.347,129,303.689,129h-92.621
							C191.409,129,176.199,146.228,178.636,165.735z"/>
					</g>
				</g>
			</g>
			<path id="XMLID_1217_" style="fill:#FFCF64;" d="M167.538,117.83l0,35.334c0,3.418,2.781,6.178,6.2,6.149
				c16.099-0.137,54.973-2.944,84.273-25.055c29.3,22.111,68.174,24.918,84.273,25.055c3.418,0.029,6.2-2.731,6.2-6.149l0-35.334
				H167.538z"/>
		</g>
	</g>
	<g id="XMLID_1218_">
		<path id="XMLID_1219_" d="M460.826,317.917h-24.995v-4.462c18.715-7.344,33.141-23.625,37.657-43.892
			c2.403,0.674,4.9,1.039,7.456,1.039c15.188,0,27.543-12.356,27.543-27.543c0-6.808-2.488-13.042-6.596-17.855l1.811-8.835
			c5.161-25.175-0.146-50.59-14.942-71.563c-2.387-3.385-7.067-4.192-10.452-1.805c-3.384,2.388-4.192,7.067-1.805,10.452
			c12.384,17.554,16.825,38.828,12.504,59.903l-0.652,3.18c-2.36-0.661-4.844-1.021-7.412-1.021c-0.142,0-0.283,0.008-0.424,0.01
			l0.743-5.947c2.453-1.175,4.184-3.64,4.267-6.545c0.119-4.141-3.142-7.593-7.282-7.712c-25.858-0.741-35.86-5.567-36.757-6.027
			c-2.29-1.494-5.092-1.543-7.508-0.25c-2.285,1.222-3.653,3.6-3.818,6.169c-22.622-1.271-33.581-8.028-33.642-8.065
			c-2.304-1.512-5.252-1.639-7.678-0.329c-2.425,1.309-3.937,3.843-3.937,6.6v1.81c-2.145-0.112-4.245-0.279-6.3-0.488
			c-1.5-4.763-4.025-9.075-7.315-12.677l2.621-12.786c2.641-12.883,3.113-25.893,1.547-38.576
			c11.51-6.526,24.562-9.968,37.984-9.968c14.828,0,29.194,4.188,41.546,12.113c1.253,0.804,2.656,1.188,4.043,1.188
			c2.469,0,4.887-1.218,6.319-3.451c2.237-3.486,1.224-8.125-2.263-10.362c-14.773-9.479-31.941-14.488-49.646-14.488
			c-14.322,0-28.303,3.284-40.94,9.554c-4.257-16.274-11.985-31.657-22.95-45.097c-22.688-27.811-56.285-43.761-92.176-43.761
			c-26.238,0-51.078,8.337-71.834,24.11c-3.298,2.506-3.94,7.211-1.434,10.509c2.507,3.299,7.213,3.939,10.509,1.434
			c18.125-13.773,39.827-21.054,62.759-21.054c31.366,0,60.726,13.939,80.554,38.243c19.827,24.304,27.586,55.866,21.287,86.593
			l-1.389,6.774c-3.609-1.314-7.502-2.032-11.56-2.032c-1.098,0-2.188,0.055-3.27,0.158l0.551-4.409
			c3.166-0.277,6.108-1.63,8.393-3.896c2.604-2.582,4.039-6.025,4.039-9.694v-17.461c0-4.142-3.358-7.5-7.5-7.5s-7.5,3.358-7.5,7.5
			v16.092c-15.614-0.274-51.613-3.269-78.455-23.524c-2.674-2.018-6.361-2.018-9.035,0c-26.84,20.255-62.838,23.25-78.455,23.524
			v-16.092c0-4.142-3.358-7.5-7.5-7.5s-7.5,3.358-7.5,7.5v17.461c0,3.669,1.434,7.112,4.039,9.694
			c1.975,1.958,4.432,3.235,7.109,3.726c0.003,0.027,0.004,0.054,0.007,0.081l0.562,4.496c-1.081-0.103-2.172-0.155-3.269-0.155
			c-4.058,0-7.951,0.719-11.56,2.032l-1.389-6.774c-5.943-28.99,0.362-58.114,17.755-82.007c2.438-3.349,1.699-8.04-1.649-10.478
			c-3.349-2.439-8.041-1.699-10.478,1.649c-8.984,12.341-15.373,25.904-19.066,40.119c-12.771-6.437-26.933-9.815-41.451-9.815
			c-27.798,0-53.82,12.354-71.392,33.894s-24.448,49.512-18.866,76.744l1.811,8.835c-4.108,4.812-6.596,11.046-6.596,17.854
			c0,15.188,12.356,27.543,27.543,27.543c2.553,0,5.051-0.365,7.456-1.04c4.516,20.268,18.942,36.549,37.657,43.893v4.462H51.174
			C22.957,317.917,0,340.874,0,369.091v81.398c0,4.142,3.358,7.5,7.5,7.5s7.5-3.358,7.5-7.5v-81.398
			c0-19.947,16.228-36.174,36.174-36.174h27.088v2.204c0,12.344,10.042,22.387,22.387,22.387c12.344,0,22.386-10.042,22.386-22.387
			v-2.204h16.454c-7.717,10.69-12.282,23.798-12.282,37.96v107.196c0,4.142,3.358,7.5,7.5,7.5s7.5-3.358,7.5-7.5V370.877
			c0-27.579,22.437-50.016,50.016-50.016h1.989l-17.518,14.922c-1.673,1.425-2.637,3.512-2.637,5.709v24.892
			c0,4.142,3.358,7.5,7.5,7.5h5.122l-5.734,19.741c-0.656,2.258-0.215,4.693,1.191,6.578l24.945,33.426v44.444
			c0,4.142,3.358,7.5,7.5,7.5s7.5-3.358,7.5-7.5V320.861h8.19v5.28c0,14.945,12.159,27.104,27.104,27.104
			c14.946,0,27.105-12.159,27.105-27.104v-5.28h8.19v157.212c0,4.142,3.358,7.5,7.5,7.5s7.5-3.358,7.5-7.5v-44.444l24.945-33.426
			c1.406-1.885,1.848-4.32,1.191-6.578l-5.734-19.74h5.122c4.142,0,7.5-3.358,7.5-7.5v-24.892c0-2.197-0.964-4.284-2.637-5.709
			l-17.494-14.902c27.215,0.425,49.226,22.682,49.226,49.996V399c0,4.142,3.358,7.5,7.5,7.5s7.5-3.358,7.5-7.5v-28.123
			c0-14.162-4.565-27.271-12.282-37.96h18.547v2.204c0,12.344,10.042,22.387,22.387,22.387s22.387-10.042,22.387-22.387v-2.204
			h24.995c19.947,0,36.174,16.228,36.174,36.174v81.398c0,4.142,3.358,7.5,7.5,7.5s7.5-3.358,7.5-7.5v-81.398
			C512,340.874,489.043,317.917,460.826,317.917z M480.943,230.515c6.917,0,12.543,5.627,12.543,12.543s-5.627,12.543-12.543,12.543
			c-1.854,0-3.643-0.406-5.284-1.172l2.96-23.694C479.38,230.594,480.155,230.515,480.943,230.515z M388,210.359
			c0.103,0.003,0.205,0.004,0.308,0.004c3.008,0,5.946-1.188,8.102-3.288c0.832-0.81,1.526-1.721,2.071-2.707
			c7.432,2.652,18.965,5.528,34.743,5.985c3.097,0.083,6.181-1.103,8.416-3.273c0.441-0.429,0.844-0.886,1.206-1.368
			c5.144,1.481,12.698,3.053,23.288,3.953l-6.529,52.269c-2.902,23.233-22.747,40.754-46.161,40.754s-43.259-17.521-46.161-40.754
			l-3.501-28.024c8.452-5.121,14.496-13.83,16.01-23.999C382.475,210.132,385.216,210.284,388,210.359z M333.45,242.062
			c0.323-1.237,0.615-2.487,0.879-3.748c0.201-0.492,0.442-0.966,0.705-1.43c3.57,1.254,7.349,1.913,11.237,1.913
			c1.008,0,2.003-0.053,2.988-0.139l1.97,15.773c-1.642,0.765-3.432,1.172-5.284,1.172c-6.917,0-12.543-5.627-12.543-12.543
			C333.401,242.724,333.424,242.393,333.45,242.062z M346.27,186.005c10.419,0,18.896,8.477,18.896,18.896
			c0,10.419-8.477,18.896-18.896,18.896c-3.399,0-6.644-0.897-9.521-2.585l4.305-34.464
			C342.739,186.264,344.483,186.005,346.27,186.005z M258.011,143.466c23.632,15.93,51.775,21.1,70.498,22.688l-7.982,63.901
			c-3.97,31.784-31.118,55.752-63.149,55.752s-59.18-23.968-63.149-55.752l-7.969-63.798
			C204.963,164.794,233.846,159.755,258.011,143.466z M164.842,238.598c1.198,0.129,2.413,0.199,3.644,0.199
			c3.65,0,7.255-0.601,10.679-1.738c0.994,1.82,1.527,3.868,1.527,5.999c0,6.917-5.627,12.543-12.543,12.543
			c-1.862,0-3.648-0.401-5.285-1.165L164.842,238.598z M173.701,186.739l4.307,34.483c-2.87,1.687-6.109,2.575-9.522,2.575
			c-10.419,0-18.896-8.477-18.896-18.896c0-10.419,8.477-18.896,18.896-18.896C170.271,186.005,172.016,186.256,173.701,186.739z
			 M40.879,149.107c14.711-18.033,36.497-28.376,59.77-28.376c13.637,0,26.89,3.548,38.534,10.278
			c-1.496,12.542-0.975,25.415,1.66,38.267l2.621,12.786c-2.664,2.916-4.821,6.3-6.344,10.009c-5.421-1.305-7.99-2.553-8.424-2.777
			c-2.29-1.495-5.092-1.544-7.509-0.25c-2.284,1.222-3.653,3.6-3.817,6.168c-22.622-1.271-33.581-8.028-33.642-8.065
			c-2.304-1.512-5.252-1.639-7.678-0.329c-2.425,1.309-3.937,3.843-3.937,6.6v1.81c-16.422-0.854-27.191-4.425-33.456-7.375
			c-3.746-1.764-8.216-0.158-9.98,3.59c-1.685,3.579-0.29,7.81,3.104,9.721l1.794,14.363c-0.142-0.002-0.282-0.01-0.424-0.01
			c-2.568,0-5.052,0.361-7.413,1.021l-0.652-3.18C20.411,190.558,26.168,167.14,40.879,149.107z M20.606,243.059
			c0-6.917,5.627-12.543,12.543-12.543c0.787,0,1.563,0.074,2.323,0.216l2.96,23.7c-1.642,0.765-3.432,1.172-5.284,1.172
			C26.233,255.602,20.606,249.975,20.606,243.059z M54.488,261.936l-6.89-55.162c7.333,1.845,16.468,3.286,27.608,3.585
			c0.103,0.003,0.205,0.004,0.308,0.004c3.008,0,5.946-1.188,8.102-3.287c0.832-0.81,1.526-1.721,2.071-2.707
			c7.432,2.652,18.965,5.528,34.743,5.985c3.102,0.083,6.182-1.103,8.416-3.273c0.438-0.426,0.839-0.88,1.2-1.359
			c1.362,0.393,2.897,0.791,4.61,1.181c0.656,11.192,6.766,20.935,15.705,26.617l-3.549,28.415
			c-2.902,23.233-22.747,40.754-46.161,40.754S57.39,285.169,54.488,261.936z M100.649,342.508c-4.073,0-7.387-3.313-7.387-7.387
			V317.23c2.427,0.293,4.889,0.46,7.387,0.46c2.497,0,4.96-0.166,7.386-0.46v17.891
			C108.035,339.194,104.722,342.508,100.649,342.508z M196.393,394.224l7.479-25.747c0.658-2.265,0.212-4.708-1.205-6.595
			s-3.638-2.997-5.998-2.997h-7.61v-13.928l18.024-15.354v78.946L196.393,394.224z M192.224,305.861
			c-14.245,0-27.426,4.617-38.15,12.417c-2-0.235-4.026-0.361-6.044-0.361h-24.995v-4.462c18.718-7.345,33.147-23.631,37.66-43.903
			c2.415,0.68,4.921,1.05,7.453,1.05c8.343,0,15.827-3.73,20.88-9.609c9.173,16.092,23.816,28.539,41.246,34.968v9.9H192.224z
			 M257.378,338.246c-6.674,0-12.104-5.43-12.104-12.104v-26.287c3.955,0.616,7.994,0.953,12.104,0.953
			c4.11,0,8.15-0.337,12.105-0.953v26.287C269.483,332.816,264.053,338.246,257.378,338.246z M325.697,358.885h-7.61
			c-2.359,0-4.581,1.11-5.998,2.997s-1.863,4.33-1.205,6.596l7.479,25.747l-10.691,14.325v-78.947l18.024,15.354V358.885z
			 M363.97,317.917c-2.019,0-4.046,0.126-6.043,0.361c-10.724-7.8-23.905-12.417-38.15-12.417h-35.293v-9.901
			c17.27-6.37,31.806-18.646,40.994-34.523c5.045,5.614,12.343,9.164,20.468,9.164c2.553,0,5.051-0.365,7.456-1.04
			c4.516,20.268,18.942,36.549,37.657,43.893v4.462H363.97z M413.444,342.508c-4.073,0-7.387-3.313-7.387-7.387V317.23
			c2.427,0.293,4.889,0.46,7.387,0.46s4.96-0.166,7.387-0.46v17.891C420.831,339.194,417.517,342.508,413.444,342.508z"/>
		<path id="XMLID_1238_" d="M376.521,238.939l0.087,3.177c0.111,4.071,3.446,7.295,7.493,7.295c0.069,0,0.139-0.001,0.209-0.003
			c4.141-0.113,7.405-3.562,7.292-7.702l-0.087-3.177c-0.113-4.141-3.558-7.42-7.702-7.292
			C379.673,231.35,376.408,234.798,376.521,238.939z"/>
		<path id="XMLID_1239_" d="M442.866,249.411c0.069,0,0.139-0.001,0.209-0.003c4.141-0.113,7.405-3.562,7.292-7.702l-0.087-3.177
			c-0.113-4.141-3.558-7.42-7.702-7.292c-4.141,0.113-7.405,3.562-7.292,7.702l0.087,3.177
			C435.484,246.187,438.818,249.411,442.866,249.411z"/>
		<path id="XMLID_1240_" d="M389.508,265.334c5.547,7.66,14.495,12.233,23.936,12.233c9.441,0,18.39-4.573,23.937-12.233
			c2.429-3.355,1.679-8.044-1.676-10.474c-3.355-2.429-8.044-1.679-10.474,1.676c-2.734,3.777-7.141,6.031-11.787,6.031
			s-9.052-2.254-11.787-6.031c-2.429-3.354-7.117-4.104-10.474-1.676C387.829,257.29,387.079,261.979,389.508,265.334z"/>
		<path id="XMLID_1241_" d="M468.924,374.813c-4.142,0-7.5,3.358-7.5,7.5v68.176c0,4.142,3.358,7.5,7.5,7.5s7.5-3.358,7.5-7.5
			v-68.176C476.424,378.171,473.066,374.813,468.924,374.813z"/>
		<path id="XMLID_1242_" d="M78.807,241.706l-0.087-3.177c-0.113-4.141-3.544-7.42-7.702-7.292
			c-4.141,0.113-7.405,3.562-7.292,7.702l0.087,3.177c0.111,4.071,3.446,7.295,7.493,7.295c0.069,0,0.139-0.001,0.209-0.003
			C75.656,249.295,78.92,245.847,78.807,241.706z"/>
		<path id="XMLID_1243_" d="M130.07,249.411c0.069,0,0.139-0.001,0.209-0.003c4.141-0.113,7.405-3.562,7.292-7.702l-0.087-3.177
			c-0.113-4.141-3.544-7.42-7.702-7.292c-4.141,0.113-7.405,3.562-7.292,7.702l0.087,3.177
			C122.688,246.187,126.023,249.411,130.07,249.411z"/>
		<path id="XMLID_1244_" d="M124.585,265.334c2.429-3.355,1.679-8.044-1.676-10.474c-3.356-2.429-8.044-1.679-10.474,1.676
			c-2.734,3.777-7.141,6.031-11.787,6.031s-9.053-2.254-11.787-6.031c-2.429-3.354-7.117-4.104-10.474-1.676
			c-3.354,2.429-4.105,7.119-1.676,10.474c5.547,7.66,14.495,12.233,23.937,12.233C110.09,277.568,119.038,272.995,124.585,265.334z
			"/>
		<path id="XMLID_1245_" d="M43.076,374.813c-4.142,0-7.5,3.358-7.5,7.5v68.176c0,4.142,3.358,7.5,7.5,7.5s7.5-3.358,7.5-7.5
			v-68.176C50.576,378.171,47.218,374.813,43.076,374.813z"/>
		<path id="XMLID_1246_" d="M377.292,423.5c-4.142,0-7.5,3.358-7.5,7.5v47.073c0,4.142,3.358,7.5,7.5,7.5s7.5-3.358,7.5-7.5V431
			C384.792,426.858,381.435,423.5,377.292,423.5z"/>
		<path id="XMLID_1247_" d="M218.737,210.89c0.07,0,0.14-0.001,0.209-0.003c4.141-0.113,7.405-3.562,7.292-7.703L226.124,199
			c-0.113-4.141-3.59-7.412-7.703-7.292c-4.141,0.113-7.405,3.562-7.292,7.703l0.115,4.184
			C211.355,207.666,214.69,210.89,218.737,210.89z"/>
		<path id="XMLID_1248_" d="M296.125,210.89c0.07,0,0.14-0.001,0.209-0.003c4.141-0.113,7.405-3.562,7.292-7.703L303.512,199
			c-0.113-4.141-3.596-7.412-7.703-7.292c-4.141,0.113-7.405,3.562-7.292,7.703l0.115,4.184
			C288.744,207.666,292.079,210.89,296.125,210.89z"/>
		<path id="XMLID_1249_" d="M257.378,247.97c11.674,0,22.739-5.655,29.597-15.128c2.429-3.355,1.679-8.044-1.676-10.473
			c-3.355-2.43-8.044-1.679-10.473,1.676c-4.046,5.589-10.569,8.925-17.448,8.925c-6.878,0-13.401-3.336-17.448-8.925
			c-2.429-3.355-7.118-4.105-10.473-1.676c-3.355,2.429-4.105,7.118-1.676,10.473C234.64,242.315,245.704,247.97,257.378,247.97z"/>
		<path id="XMLID_1250_" d="M181.559,411.258c-4.142,0-7.5,3.358-7.5,7.5v59.315c0,4.142,3.358,7.5,7.5,7.5s7.5-3.358,7.5-7.5
			v-59.315C189.059,414.616,185.701,411.258,181.559,411.258z"/>
		<path id="XMLID_1251_" d="M330.441,411.258c-4.142,0-7.5,3.358-7.5,7.5v59.315c0,4.142,3.358,7.5,7.5,7.5s7.5-3.358,7.5-7.5
			v-59.315C337.941,414.616,334.583,411.258,330.441,411.258z"/>
	</g>
</g>
<g>
</g>
<g>
</g>
<g>
</g>
<g>
</g>
<g>
</g>
<g>
</g>
<g>
</g>
<g>
</g>
<g>
</g>
<g>
</g>
<g>
</g>
<g>
</g>
<g>
</g>
<g>
</g>
<g>
</g>
</svg>
