<?xml version="1.0" encoding="UTF-8" standalone="no"?> <svg width="64" height="64" viewBox="0 0 64 64" fill="none" xmlns="http://www.w3.org/2000/svg">
<path d="M18 5C21.4478 5 24.7544 6.36964 27.1924 8.80761C29.6304 11.2456 31 14.5522 31 18V35H5V18C5 14.5522 6.36964 11.2456 8.80761 8.80761C11.2456 6.36964 14.5522 5 18 5V5Z" fill="#57B7EB"/>
<path d="M29 27.948V17.577C28.9998 16.5893 28.639 15.6357 27.9853 14.8952C27.3316 14.1548 26.4301 13.6786 25.45 13.556H25.421C22.5303 13.1944 19.796 12.0397 17.521 10.22C17.0461 9.83984 16.6628 9.35771 16.3995 8.80932C16.1362 8.26092 15.9997 7.66031 16 7.05199C16.0045 6.36317 16.1863 5.68711 16.528 5.08899C13.3565 5.45042 10.4289 6.96604 8.30293 9.34704C6.17697 11.728 5.00132 14.808 5 18V35H31V31.424C30.3927 31.0691 29.8887 30.5616 29.5379 29.9519C29.187 29.3422 29.0016 28.6514 29 27.948Z" fill="#4891D3"/>
<path d="M11 32H25C27.1217 32 29.1566 32.8429 30.6569 34.3431C32.1571 35.8434 33 37.8783 33 40V52H3V40C3 37.8783 3.84285 35.8434 5.34315 34.3431C6.84344 32.8429 8.87827 32 11 32V32Z" fill="#84D2F4"/>
<path d="M24 49C20.8174 49 17.7652 47.7357 15.5147 45.4853C13.2643 43.2348 12 40.1826 12 37C12.0003 35.7574 12.2921 34.5323 12.852 33.423C14.3116 33.9755 15.8907 34.1349 17.4313 33.8852C18.9718 33.6354 20.4197 32.9853 21.63 32H11C8.87827 32 6.84344 32.8429 5.34315 34.3431C3.84285 35.8434 3 37.8783 3 40V52H33V49H24Z" fill="#57B7EB"/>
<path d="M14 29H22V33C22 34.0609 21.5786 35.0783 20.8284 35.8284C20.0783 36.5786 19.0609 37 18 37C16.9391 37 15.9217 36.5786 15.1716 35.8284C14.4214 35.0783 14 34.0609 14 33V29Z" fill="#FCBC04"/>
<path d="M9 44H3V52H9V44Z" fill="#FCBC04"/>
<path d="M33 44H27V52H33V44Z" fill="#F9E109"/>
<path d="M20 36C19.2955 35.9983 18.6041 35.8098 17.9963 35.4537C17.3885 35.0976 16.8859 34.5867 16.54 33.973C18.5667 33.8514 20.492 33.0446 22 31.685V29H14V33C13.9977 33.7778 14.2229 34.5393 14.6479 35.1907C15.0729 35.8421 15.6791 36.355 16.3919 36.6663C17.1047 36.9776 17.893 37.0737 18.6597 36.9426C19.4264 36.8116 20.138 36.4593 20.707 35.929C20.4739 35.9735 20.2373 35.9973 20 36V36Z" fill="#E59730"/>
<path d="M29 49C29 48.2044 29.3161 47.4413 29.8787 46.8787C30.4413 46.3161 31.2044 46 32 46H33V44H27V52H29V49Z" fill="#FCBC04"/>
<path d="M7 49C7 48.2044 6.68393 47.4413 6.12132 46.8787C5.55871 46.3161 4.79565 46 4 46H3V44H9V52H7V49Z" fill="#E59730"/>
<path d="M18 32C15.6131 32 13.3239 31.0518 11.636 29.364C9.94821 27.6761 9 25.3869 9 23V16H10.394C11.5032 16.0001 12.5952 15.7263 13.5732 15.2029C14.5511 14.6796 15.3847 13.9229 16 13V13C18.5964 14.9473 21.7544 16 25 16H27V23C27 25.3869 26.0518 27.6761 24.364 29.364C22.6761 31.0518 20.3869 32 18 32V32Z" fill="#F9E109"/>
<path d="M25 16C21.7544 16 18.5964 14.9473 16 13C15.3847 13.9228 14.5511 14.6795 13.5731 15.2028C12.5952 15.7262 11.5032 16 10.394 16H9V23C9.00113 24.7839 9.53237 26.5272 10.5263 28.0086C11.5202 29.49 12.9319 30.6426 14.5821 31.32C16.2324 31.9975 18.0467 32.1693 19.7948 31.8135C21.5429 31.4578 23.1458 30.5906 24.4 29.322C23.3221 29.7687 22.1668 29.9991 21 30C18.6131 30 16.3239 29.0518 14.636 27.364C12.9482 25.6761 12 23.3869 12 21V18.8C13.6368 18.4003 15.0642 17.4011 16 16C18.5964 17.9473 21.7544 19 25 19H27V16H25Z" fill="#FCBC04"/>
<path d="M41 27H31C28.8783 27 26.8434 26.1571 25.3431 24.6569C23.8429 23.1566 23 21.1217 23 19V9L29.857 10.524C31.283 10.8406 32.7393 11.0002 34.2 11H41C43.1217 11 45.1566 11.8429 46.6569 13.3431C48.1571 14.8434 49 16.8783 49 19C49 21.1217 48.1571 23.1566 46.6569 24.6569C45.1566 26.1571 43.1217 27 41 27Z" fill="#57B7EB"/>
<path d="M47 19.413C47.0001 18.4926 46.6464 17.6073 46.0121 16.9404C45.3777 16.2735 44.5113 15.8759 43.592 15.83L34.202 15.36C31.9678 15.2484 29.7909 14.6149 27.8456 13.5105C25.9003 12.406 24.2408 10.8613 23 9V19C23 21.1217 23.8429 23.1566 25.3431 24.6569C26.8434 26.1571 28.8783 27 31 27H41C42.5591 26.9997 44.0842 26.5438 45.3877 25.6883C46.6912 24.8329 47.7163 23.6152 48.337 22.185C47.9211 21.8523 47.5852 21.4305 47.3538 20.9508C47.1224 20.4711 47.0015 19.9456 47 19.413V19.413Z" fill="#4891D3"/>
<path d="M29 37H43C45.1217 37 47.1566 37.8429 48.6569 39.3431C50.1571 40.8434 51 42.8783 51 45V57H21V45C21 42.8783 21.8429 40.8434 23.3431 39.3431C24.8434 37.8429 26.8783 37 29 37V37Z" fill="#84D2F4"/>
<path d="M42 54C38.8174 54 35.7652 52.7357 33.5147 50.4853C31.2643 48.2348 30 45.1826 30 42C30.0003 40.7574 30.2921 39.5323 30.852 38.423C32.3116 38.9755 33.8907 39.1349 35.4313 38.8852C36.9718 38.6354 38.4197 37.9853 39.63 37H29C26.8783 37 24.8434 37.8429 23.3431 39.3431C21.8429 40.8434 21 42.8783 21 45V57H51V54H42Z" fill="#57B7EB"/>
<path d="M32 34H40V38C40 39.0609 39.5786 40.0783 38.8284 40.8284C38.0783 41.5786 37.0609 42 36 42C34.9391 42 33.9217 41.5786 33.1716 40.8284C32.4214 40.0783 32 39.0609 32 38V34Z" fill="#FCBC04"/>
<path d="M27 49H21V57H27V49Z" fill="#FCBC04"/>
<path d="M51 49H45V57H51V49Z" fill="#F9E109"/>
<path d="M38 41C37.2955 40.9983 36.6041 40.8098 35.9963 40.4537C35.3885 40.0976 34.8859 39.5867 34.54 38.973C36.5667 38.8514 38.492 38.0446 40 36.685V34H32V38C31.9977 38.7778 32.2229 39.5393 32.6479 40.1907C33.0729 40.8421 33.6791 41.355 34.3919 41.6663C35.1047 41.9776 35.893 42.0737 36.6597 41.9426C37.4264 41.8116 38.138 41.4593 38.707 40.929C38.4739 40.9735 38.2373 40.9973 38 41Z" fill="#E59730"/>
<path d="M47 54C47 53.2044 47.3161 52.4413 47.8787 51.8787C48.4413 51.3161 49.2044 51 50 51H51V49H45V57H47V54Z" fill="#FCBC04"/>
<path d="M25 54C25 53.2044 24.6839 52.4413 24.1213 51.8787C23.5587 51.3161 22.7956 51 22 51H21V49H27V57H25V54Z" fill="#E59730"/>
<path d="M36 37C33.6131 37 31.3239 36.0518 29.636 34.364C27.9482 32.6761 27 30.3869 27 28V17C30.9741 18.3248 35.1359 19.0002 39.325 19H45V28C45 30.3869 44.0518 32.6761 42.364 34.364C40.6761 36.0518 38.3869 37 36 37Z" fill="#F9E109"/>
<path d="M39.325 19C35.1359 19.0002 30.9741 18.3248 27 17V28C27.0005 29.7842 27.5314 31.5279 28.525 33.0097C29.5187 34.4916 30.9304 35.6446 32.5807 36.3225C34.2311 37.0003 36.0457 37.1723 37.7941 36.8167C39.5424 36.461 41.1456 35.5937 42.4 34.325C41.0342 34.8868 39.5509 35.1031 38.0815 34.9549C36.6122 34.8067 35.202 34.2985 33.9758 33.4753C32.7497 32.6522 31.7455 31.5394 31.052 30.2355C30.3585 28.9316 29.9972 27.4768 30 26V20.868C33.0513 21.62 36.1824 22.0001 39.325 22H45V19H39.325Z" fill="#FCBC04"/>
<path d="M51 61C56.5228 61 61 56.5228 61 51C61 45.4772 56.5228 41 51 41C45.4772 41 41 45.4772 41 51C41 56.5228 45.4772 61 51 61Z" fill="#F9E109"/>
<path d="M54 58C52.205 58.0003 50.4431 57.517 48.8995 56.6008C47.3559 55.6847 46.0877 54.3696 45.2282 52.7937C44.3686 51.2179 43.9495 49.4396 44.015 47.6458C44.0804 45.852 44.6279 44.109 45.6 42.6C44.343 43.4066 43.2828 44.4847 42.4972 45.7549C41.7117 47.0252 41.2208 48.4553 41.0607 49.9402C40.9005 51.4251 41.0752 52.927 41.5718 54.3356C42.0684 55.7441 42.8744 57.0234 43.9305 58.0795C44.9866 59.1356 46.2659 59.9416 47.6744 60.4382C49.083 60.9348 50.5849 61.1095 52.0698 60.9494C53.5547 60.7892 54.9849 60.2983 56.2551 59.5128C57.5253 58.7272 58.6034 57.667 59.41 56.41C57.7979 57.451 55.919 58.0032 54 58V58Z" fill="#FCBC04"/>
<path d="M57 49H53V45H49V49H45V53H49V57H53V53H57V49Z" fill="#57B7EB"/>
<path d="M53 45H51V49C51 49.5304 51.2107 50.0391 51.5858 50.4142C51.9609 50.7893 52.4696 51 53 51H57V49H53V45Z" fill="#84D2F4"/>
<path d="M49 57H51V53C51 52.4696 50.7893 51.9609 50.4142 51.5858C50.0391 51.2107 49.5304 51 49 51H45V53H49V57Z" fill="#4891D3"/>
<path d="M55 22L49 28H52V36H58V28H61L55 22Z" fill="#F89C8D"/>
<path d="M55 30V22L49 28H52V36H58V33.859C57.143 33.6391 56.3833 33.1408 55.8403 32.4423C55.2973 31.7438 55.0017 30.8847 55 30V30Z" fill="#F8664F"/>
<path d="M14.168 26.445C14.0951 26.5542 14.0444 26.6768 14.0189 26.8056C13.9934 26.9345 13.9935 27.0671 14.0192 27.1959C14.0449 27.3247 14.0957 27.4471 14.1688 27.5563C14.2419 27.6654 14.3357 27.7591 14.445 27.832C15.4969 28.5361 16.7342 28.912 18 28.912C19.2658 28.912 20.5031 28.5361 21.555 27.832C21.6642 27.7591 21.7581 27.6654 21.8311 27.5563C21.9042 27.4471 21.955 27.3247 21.9807 27.1959C22.0065 27.0671 22.0066 26.9345 21.981 26.8056C21.9555 26.6768 21.9049 26.5542 21.832 26.445C21.7591 26.3357 21.6654 26.2419 21.5563 26.1688C21.4471 26.0958 21.3247 26.045 21.1959 26.0192C21.0671 25.9935 20.9345 25.9934 20.8056 26.0189C20.6768 26.0445 20.5542 26.0951 20.445 26.168C19.7213 26.6517 18.8704 26.9099 18 26.9099C17.1296 26.9099 16.2787 26.6517 15.555 26.168C15.4457 26.0951 15.3232 26.0444 15.1944 26.0189C15.0655 25.9934 14.9329 25.9935 14.8041 26.0192C14.6753 26.0449 14.5528 26.0957 14.4437 26.1688C14.3345 26.2419 14.2409 26.3357 14.168 26.445Z" fill="#39519D"/>
<path d="M12.445 19.168C12.3357 19.2409 12.2419 19.3346 12.1689 19.4437C12.0958 19.5529 12.045 19.6753 12.0192 19.8041C11.9935 19.9329 11.9934 20.0655 12.0189 20.1943C12.0445 20.3232 12.0951 20.4457 12.168 20.555C12.3152 20.7756 12.544 20.9288 12.8041 20.9807C12.9329 21.0065 13.0655 21.0066 13.1944 20.981C13.3232 20.9555 13.4457 20.9049 13.555 20.832C13.8347 20.645 14.1636 20.5451 14.5 20.5451C14.8364 20.5451 15.1653 20.645 15.445 20.832C15.5543 20.9049 15.6768 20.9555 15.8056 20.981C15.9345 21.0066 16.0671 21.0065 16.1959 20.9807C16.3247 20.955 16.4471 20.9042 16.5563 20.8311C16.6654 20.7581 16.7591 20.6642 16.832 20.555C16.9049 20.4457 16.9555 20.3232 16.9811 20.1943C17.0066 20.0655 17.0065 19.9329 16.9808 19.8041C16.955 19.6753 16.9042 19.5529 16.8311 19.4437C16.7581 19.3346 16.6643 19.2409 16.555 19.168C15.9467 18.7617 15.2315 18.5448 14.5 18.5448C13.7685 18.5448 13.0533 18.7617 12.445 19.168V19.168Z" fill="#39519D"/>
<path d="M36 33.912C37.2657 33.9115 38.5029 33.5356 39.555 32.832C39.6643 32.7591 39.7581 32.6654 39.8312 32.5563C39.9042 32.4471 39.955 32.3247 39.9808 32.1959C40.0065 32.0671 40.0066 31.9345 39.9811 31.8056C39.9555 31.6768 39.9049 31.5543 39.832 31.445C39.7591 31.3357 39.6654 31.2419 39.5563 31.1689C39.4471 31.0958 39.3247 31.045 39.1959 31.0192C39.0671 30.9935 38.9345 30.9934 38.8056 31.019C38.6768 31.0445 38.5543 31.0951 38.445 31.168C37.7213 31.6517 36.8704 31.9099 36 31.9099C35.1296 31.9099 34.2787 31.6517 33.555 31.168C33.3343 31.0208 33.0643 30.9673 32.8041 31.0192C32.544 31.0712 32.3152 31.2243 32.168 31.445C32.0208 31.6657 31.9673 31.9358 32.0192 32.1959C32.0712 32.456 32.2243 32.6848 32.445 32.832C33.4971 33.5356 34.7343 33.9115 36 33.912Z" fill="#39519D"/>
<path d="M33.445 25.832C33.5543 25.9049 33.6768 25.9555 33.8056 25.981C33.9345 26.0066 34.0671 26.0065 34.1959 25.9807C34.3247 25.955 34.4471 25.9042 34.5563 25.8311C34.6654 25.7581 34.7591 25.6642 34.832 25.555C34.9049 25.4457 34.9555 25.3232 34.9811 25.1943C35.0066 25.0655 35.0065 24.9329 34.9808 24.8041C34.955 24.6753 34.9042 24.5529 34.8311 24.4437C34.7581 24.3346 34.6643 24.2409 34.555 24.168C33.9467 23.7617 33.2315 23.5448 32.5 23.5448C31.7685 23.5448 31.0533 23.7617 30.445 24.168C30.3357 24.2409 30.2419 24.3346 30.1689 24.4437C30.0958 24.5529 30.045 24.6753 30.0192 24.8041C29.9935 24.9329 29.9934 25.0655 30.0189 25.1943C30.0445 25.3232 30.0951 25.4457 30.168 25.555C30.2409 25.6642 30.3346 25.7581 30.4437 25.8311C30.5529 25.9042 30.6753 25.955 30.8041 25.9807C30.9329 26.0065 31.0655 26.0066 31.1944 25.981C31.3232 25.9555 31.4457 25.9049 31.555 25.832C31.8347 25.645 32.1636 25.5451 32.5 25.5451C32.8364 25.5451 33.1653 25.645 33.445 25.832V25.832Z" fill="#39519D"/>
<path d="M41 26C41.2147 26.0002 41.4238 25.9314 41.5964 25.8036C41.7689 25.6758 41.8958 25.4959 41.9581 25.2904C42.0205 25.0849 42.0151 24.8648 41.9426 24.6627C41.8702 24.4606 41.7347 24.2871 41.556 24.168C40.9477 23.7617 40.2326 23.5448 39.501 23.5448C38.7695 23.5448 38.0543 23.7617 37.446 24.168C37.2254 24.3152 37.0722 24.544 37.0203 24.8041C36.9683 25.0642 37.0218 25.3343 37.169 25.555C37.3162 25.7756 37.545 25.9288 37.8051 25.9807C38.0653 26.0327 38.3354 25.9792 38.556 25.832C38.8357 25.645 39.1646 25.5451 39.501 25.5451C39.8375 25.5451 40.1663 25.645 40.446 25.832C40.6101 25.9414 40.8028 25.9998 41 26Z" fill="#39519D"/>
<path d="M43 38C44.0349 38.0014 45.0561 38.2359 45.988 38.686C46.1066 38.7424 46.2352 38.775 46.3665 38.7817C46.4977 38.7884 46.6289 38.7692 46.7527 38.7252C46.8765 38.6812 46.9904 38.6132 47.0879 38.5252C47.1854 38.4371 47.2646 38.3307 47.321 38.212C47.4348 37.9726 47.4489 37.6979 47.3602 37.4481C47.2715 37.1983 47.0873 36.994 46.848 36.88C45.6475 36.302 44.3324 36.0013 43 36H41.974C43.2219 35.0723 44.2358 33.8659 44.9348 32.477C45.6338 31.088 45.9985 29.5549 46 28V26.451C47.6053 25.3813 48.8234 23.823 49.4739 22.0069C50.1245 20.1909 50.1728 18.2136 49.6119 16.3679C49.0509 14.5222 47.9104 12.9062 46.3594 11.7593C44.8083 10.6124 42.9291 9.9955 41 9.99999H34.2C33.9348 9.99999 33.6804 10.1053 33.4929 10.2929C33.3054 10.4804 33.2 10.7348 33.2 11C33.2 11.2652 33.3054 11.5196 33.4929 11.7071C33.6804 11.8946 33.9348 12 34.2 12H41C42.3774 11.9976 43.7249 12.4024 44.873 13.1635C46.0211 13.9246 46.9186 15.008 47.4529 16.2776C47.9872 17.5472 48.1343 18.9464 47.8758 20.2994C47.6173 21.6524 46.9647 22.8988 46 23.882V19C46 18.7348 45.8946 18.4804 45.7071 18.2929C45.5196 18.1053 45.2652 18 45 18H43C42.7348 18 42.4804 18.1053 42.2929 18.2929C42.1054 18.4804 42 18.7348 42 19C42 19.2652 42.1054 19.5196 42.2929 19.7071C42.4804 19.8946 42.7348 20 43 20H44V28C44 30.1217 43.1571 32.1566 41.6569 33.6568C40.1566 35.1571 38.1217 36 36 36C33.8783 36 31.8434 35.1571 30.3431 33.6568C28.8429 32.1566 28 30.1217 28 28V18.362C31.6762 19.4498 35.4902 20.0014 39.324 20C39.5892 20 39.8436 19.8946 40.0311 19.7071C40.2186 19.5196 40.324 19.2652 40.324 19C40.324 18.7348 40.2186 18.4804 40.0311 18.2929C39.8436 18.1053 39.5892 18 39.324 18C35.2425 18.0011 31.1876 17.343 27.316 16.051C27.1657 16.0009 27.0056 15.9873 26.849 16.0112C26.6923 16.0352 26.5436 16.096 26.4151 16.1886C26.2866 16.2813 26.1819 16.4032 26.1097 16.5443C26.0376 16.6853 26 16.8415 26 17V23.882C24.7231 22.5771 24.0056 20.8257 24 19V10.247L29.64 11.5C29.7694 11.5319 29.9039 11.5376 30.0356 11.5168C30.1672 11.496 30.2934 11.4491 30.4067 11.3788C30.5199 11.3085 30.618 11.2163 30.6951 11.1076C30.7722 10.9988 30.8268 10.8758 30.8557 10.7456C30.8846 10.6155 30.8871 10.4809 30.8632 10.3498C30.8393 10.2186 30.7894 10.0936 30.7165 9.98201C30.6436 9.87043 30.5491 9.77455 30.4386 9.70002C30.3281 9.62548 30.2038 9.57379 30.073 9.54799L28.922 9.29199C27.6218 7.63964 25.9628 6.30458 24.0706 5.38777C22.1785 4.47096 20.1026 3.9964 18 3.99999C14.2882 4.00396 10.7295 5.48023 8.10489 8.10488C5.48024 10.7295 4.00397 14.2882 4 18V29.721C4 29.9862 4.10536 30.2406 4.29289 30.4281C4.48043 30.6156 4.73478 30.721 5 30.721C5.26522 30.721 5.51957 30.6156 5.70711 30.4281C5.89464 30.2406 6 29.9862 6 29.721V18C6.00344 14.8184 7.26883 11.7682 9.51852 9.51851C11.7682 7.26882 14.8185 6.00343 18 5.99999C20.6308 5.99719 23.1877 6.86967 25.268 8.47999L23.217 8.02399C23.0708 7.9915 22.9192 7.99224 22.7734 8.02618C22.6275 8.06011 22.4912 8.12636 22.3744 8.22004C22.2576 8.31372 22.1633 8.43244 22.0985 8.56744C22.0337 8.70243 22 8.85025 22 8.99999V14.637C20.0465 14.22 18.2051 13.389 16.6 12.2C16.4912 12.1184 16.367 12.0598 16.2348 12.0279C16.1026 11.9959 15.9653 11.9913 15.8313 12.0142C15.6972 12.0372 15.5693 12.0872 15.4552 12.1613C15.3412 12.2353 15.2435 12.3319 15.168 12.445C14.6453 13.2308 13.9365 13.8752 13.1047 14.3209C12.2728 14.7667 11.3437 14.9999 10.4 15H9C8.73478 15 8.48043 15.1053 8.29289 15.2929C8.10536 15.4804 8 15.7348 8 16C8 16.2652 8.10536 16.5196 8.29289 16.7071C8.48043 16.8946 8.73478 17 9 17H10.4C11.5007 17.0012 12.589 16.7669 13.5918 16.313C14.5945 15.859 15.4886 15.1959 16.214 14.368C17.973 15.5095 19.9387 16.295 22 16.68V18.58C21.1051 18.4576 20.1963 18.6667 19.445 19.168C19.2243 19.3152 19.0712 19.544 19.0192 19.8041C18.9673 20.0642 19.0208 20.3343 19.168 20.555C19.3152 20.7757 19.544 20.9288 19.8041 20.9807C20.0642 21.0327 20.3343 20.9792 20.555 20.832C20.794 20.675 21.0691 20.5814 21.3542 20.5601C21.6394 20.5388 21.9253 20.5903 22.185 20.71C22.5939 22.7985 23.7272 24.6756 25.385 26.01C24.6887 27.7276 23.4165 29.1495 21.7867 30.0319C20.1568 30.9143 18.2707 31.2023 16.4518 30.8464C14.6329 30.4905 12.9944 29.513 11.8173 28.0814C10.6402 26.6499 9.99768 24.8534 10 23V20C10 19.7348 9.89464 19.4804 9.70711 19.2929C9.51957 19.1053 9.26522 19 9 19C8.73478 19 8.48043 19.1053 8.29289 19.2929C8.10536 19.4804 8 19.7348 8 20V23C8.00146 24.5549 8.36624 26.088 9.06523 27.477C9.76423 28.8659 10.7781 30.0723 12.026 31H11C8.61386 31.0026 6.32622 31.9517 4.63896 33.639C2.95171 35.3262 2.00265 37.6139 2 40V52C2 52.2652 2.10536 52.5196 2.29289 52.7071C2.48043 52.8946 2.73478 53 3 53C3.26522 53 3.51957 52.8946 3.70711 52.7071C3.89464 52.5196 4 52.2652 4 52V45H8V52C8 52.2652 8.10536 52.5196 8.29289 52.7071C8.48043 52.8946 8.73478 53 9 53C9.26522 53 9.51957 52.8946 9.70711 52.7071C9.89464 52.5196 10 52.2652 10 52V44C10 43.7348 9.89464 43.4804 9.70711 43.2929C9.51957 43.1053 9.26522 43 9 43H4V40C4.00212 38.1441 4.7403 36.3649 6.05259 35.0526C7.36489 33.7403 9.14413 33.0021 11 33H13C13 34.3261 13.5268 35.5978 14.4645 36.5355C15.4021 37.4732 16.6739 38 18 38C19.3261 38 20.5979 37.4732 21.5355 36.5355C22.4732 35.5978 23 34.3261 23 33H25C25.9251 33.0032 26.8401 33.1919 27.691 33.555C28.3259 34.4958 29.1154 35.3225 30.026 36H29C26.6139 36.0026 24.3262 36.9517 22.639 38.639C20.9517 40.3262 20.0026 42.6139 20 45V57C20 57.2652 20.1054 57.5196 20.2929 57.7071C20.4804 57.8946 20.7348 58 21 58C21.2652 58 21.5196 57.8946 21.7071 57.7071C21.8946 57.5196 22 57.2652 22 57V50H26V57C26 57.2652 26.1054 57.5196 26.2929 57.7071C26.4804 57.8946 26.7348 58 27 58C27.2652 58 27.5196 57.8946 27.7071 57.7071C27.8946 57.5196 28 57.2652 28 57V49C28 48.7348 27.8946 48.4804 27.7071 48.2929C27.5196 48.1053 27.2652 48 27 48H22V45C22.0021 43.1441 22.7403 41.3649 24.0526 40.0526C25.3649 38.7403 27.1441 38.0021 29 38H31C31 39.3261 31.5268 40.5978 32.4645 41.5355C33.4021 42.4732 34.6739 43 36 43C37.3261 43 38.5979 42.4732 39.5355 41.5355C40.4732 40.5978 41 39.3261 41 38H43ZM18 36C17.2044 36 16.4413 35.6839 15.8787 35.1213C15.3161 34.5587 15 33.7956 15 33V32.539C15.9707 32.8446 16.9824 33.0001 18 33C19.0174 32.9991 20.0289 32.8444 21 32.541V33C21 33.7956 20.6839 34.5587 20.1213 35.1213C19.5587 35.6839 18.7956 36 18 36ZM25 31H24.017C24.7909 30.4177 25.4752 29.725 26.048 28.944C26.1193 29.6925 26.2753 30.4306 26.513 31.144C26.0137 31.0528 25.5075 31.0047 25 31V31ZM36 41C35.2044 41 34.4413 40.6839 33.8787 40.1213C33.3161 39.5587 33 38.7956 33 38V37.539C34.9528 38.1536 37.0472 38.1536 39 37.539V38C39 38.7956 38.6839 39.5587 38.1213 40.1213C37.5587 40.6839 36.7956 41 36 41Z" fill="#39519D"/>
<path d="M60.383 45.278C60.3145 45.1659 60.2246 45.0684 60.1185 44.9911C60.0123 44.9137 59.8919 44.858 59.7643 44.8272C59.6366 44.7964 59.5041 44.791 59.3743 44.8114C59.2446 44.8318 59.1201 44.8775 59.008 44.946C58.8959 45.0145 58.7984 45.1044 58.7211 45.2105C58.6437 45.3167 58.5881 45.437 58.5572 45.5647C58.5264 45.6924 58.521 45.8249 58.5414 45.9547C58.5618 46.0844 58.6075 46.2089 58.676 46.321C59.838 48.2276 60.2507 50.4978 59.8341 52.6914C59.4174 54.885 58.2011 56.8458 56.4209 58.1935C54.6407 59.5413 52.4235 60.18 50.1991 59.986C47.9748 59.7919 45.9017 58.7788 44.3818 57.143C42.862 55.5073 42.0036 53.3655 41.9732 51.1329C41.9427 48.9003 42.7424 46.7359 44.2171 45.0593C45.6917 43.3828 47.7364 42.3135 49.9547 42.0589C52.1729 41.8042 54.4067 42.3823 56.223 43.681C56.4388 43.8353 56.707 43.8977 56.9687 43.8542C57.2304 43.8108 57.4642 43.6652 57.6185 43.4495C57.7729 43.2337 57.8352 42.9655 57.7918 42.7038C57.7484 42.4421 57.6028 42.2083 57.387 42.054C55.1608 40.4627 52.423 39.755 49.7045 40.068C46.9861 40.3809 44.4807 41.6923 42.6744 43.7478C40.868 45.8033 39.8894 48.4564 39.9283 51.1926C39.9673 53.9287 41.0209 56.5529 42.885 58.5561C44.7491 60.5594 47.2908 61.799 50.017 62.0345C52.7433 62.2701 55.4599 61.4847 57.6399 59.8308C59.8199 58.1769 61.308 55.7723 61.8156 53.0833C62.3232 50.3944 61.8141 47.6128 60.387 45.278H60.383Z" fill="#39519D"/>
<path d="M49 58H53C53.2652 58 53.5196 57.8946 53.7071 57.7071C53.8946 57.5196 54 57.2652 54 57V54H57C57.2652 54 57.5196 53.8946 57.7071 53.7071C57.8946 53.5196 58 53.2652 58 53V49C58 48.7348 57.8946 48.4804 57.7071 48.2929C57.5196 48.1054 57.2652 48 57 48H54V45C54 44.7348 53.8946 44.4804 53.7071 44.2929C53.5196 44.1054 53.2652 44 53 44H49C48.7348 44 48.4804 44.1054 48.2929 44.2929C48.1054 44.4804 48 44.7348 48 45V48H45C44.7348 48 44.4804 48.1054 44.2929 48.2929C44.1054 48.4804 44 48.7348 44 49V53C44 53.2652 44.1054 53.5196 44.2929 53.7071C44.4804 53.8946 44.7348 54 45 54H48V57C48 57.2652 48.1054 57.5196 48.2929 57.7071C48.4804 57.8946 48.7348 58 49 58ZM46 52V50H49C49.2652 50 49.5196 49.8946 49.7071 49.7071C49.8946 49.5196 50 49.2652 50 49V46H52V49C52 49.2652 52.1054 49.5196 52.2929 49.7071C52.4804 49.8946 52.7348 50 53 50H56V52H53C52.7348 52 52.4804 52.1054 52.2929 52.2929C52.1054 52.4804 52 52.7348 52 53V56H50V53C50 52.7348 49.8946 52.4804 49.7071 52.2929C49.5196 52.1054 49.2652 52 49 52H46Z" fill="#39519D"/>
<path d="M48.076 28.383C48.1517 28.5657 48.2799 28.7218 48.4444 28.8316C48.6089 28.9415 48.8022 29 49 29H51V36C51 36.2652 51.1054 36.5196 51.2929 36.7071C51.4804 36.8946 51.7348 37 52 37H58C58.2652 37 58.5196 36.8946 58.7071 36.7071C58.8946 36.5196 59 36.2652 59 36V29H61C61.1977 29 61.391 28.9413 61.5555 28.8314C61.7199 28.7215 61.848 28.5654 61.9237 28.3827C61.9993 28.2 62.0191 27.9989 61.9806 27.805C61.942 27.611 61.8468 27.4329 61.707 27.293L55.707 21.293C55.5195 21.1055 55.2652 21.0002 55 21.0002C54.7348 21.0002 54.4805 21.1055 54.293 21.293L48.293 27.293C48.1531 27.4328 48.0578 27.6111 48.0191 27.8051C47.9805 27.9991 48.0003 28.2002 48.076 28.383V28.383ZM55 23.414L58.586 27H58C57.7348 27 57.4804 27.1054 57.2929 27.2929C57.1054 27.4804 57 27.7348 57 28V35H53V28C53 27.7348 52.8946 27.4804 52.7071 27.2929C52.5196 27.1054 52.2652 27 52 27H51.414L55 23.414Z" fill="#39519D"/>
</svg>
